<svg width="24" height="28" viewBox="0 0 24 28" fill="none" xmlns="http://www.w3.org/2000/svg">
<g id="&#240;&#159;&#166;&#134; icon &#34;box add&#34;">
<g id="Group">
<path id="Vector" d="M22.0954 17.7894C22.0954 17.7764 22.0846 17.7634 22.0738 17.7504C22.0307 17.6725 21.9767 17.5946 21.9228 17.5297C21.912 17.5167 21.9012 17.4907 21.8905 17.4777C21.0169 16.3092 19.7335 15.582 18.3207 15.582C16.9618 15.582 15.7216 16.2572 14.8372 17.3479C13.9852 18.3996 13.4675 19.8409 13.4675 21.425C13.4675 22.5157 13.7264 23.5544 14.1685 24.4374C14.4058 24.9178 14.7078 25.3592 15.0529 25.7228C15.0745 25.7358 15.0853 25.7488 15.096 25.7618C15.15 25.8267 15.2039 25.8786 15.2686 25.9435H15.2794C15.2902 25.9565 15.3009 25.9695 15.3117 25.9695C16.1206 26.7875 17.1667 27.2679 18.3207 27.2679C20.0894 27.2679 21.6316 26.1253 22.4728 24.4374C22.7209 23.931 22.915 23.3726 23.0337 22.7883C23.1307 22.3469 23.1739 21.8924 23.1739 21.425C23.1739 20.0486 22.7748 18.7762 22.0954 17.7894ZM20.1325 22.3728H19.1296V23.6323C19.1296 24.1647 18.7629 24.6062 18.3207 24.6062C17.8785 24.6062 17.5118 24.1647 17.5118 23.6323V22.3728H16.5088C16.0667 22.3728 15.7 21.9314 15.7 21.399C15.7 20.8667 16.0667 20.4252 16.5088 20.4252H17.5118V19.2696C17.5118 18.7372 17.8785 18.2958 18.3207 18.2958C18.7629 18.2958 19.1296 18.7372 19.1296 19.2696V20.4252H20.1325C20.5747 20.4252 20.9414 20.8667 20.9414 21.399C20.9414 21.9314 20.5855 22.3728 20.1325 22.3728Z" fill="white"/>
<path id="Vector_2" opacity="0.4" d="M19.238 4.7522L12.4543 0.350577C11.7425 -0.116859 10.8798 -0.116859 10.1572 0.350577L3.37353 4.7522C2.87742 5.07681 2.57544 5.71309 2.57544 6.41424C2.57544 7.1154 2.87742 7.75159 3.37353 8.0762L10.1572 12.478C10.5131 12.7117 10.9121 12.8285 11.3004 12.8285C11.6886 12.8285 12.0877 12.7117 12.4435 12.478L19.2272 8.0762C19.7233 7.75159 20.0253 7.1154 20.0253 6.41424C20.0468 5.71309 19.7341 5.07681 19.238 4.7522Z" fill="white"/>
<path id="Vector_3" opacity="0.4" d="M9.04649 14.01L2.73738 10.2055C2.25206 9.90691 1.69125 9.94586 1.22751 10.2835C0.763761 10.6211 0.494141 11.2183 0.494141 11.8676V19.0479C0.494141 20.2944 1.06574 21.4111 1.99323 21.9694L8.30235 25.7608C8.51805 25.8906 8.75531 25.9556 8.99258 25.9556C9.27297 25.9556 9.55338 25.8647 9.80143 25.6699C10.2652 25.3323 10.5348 24.735 10.5348 24.0858V16.9055C10.5456 15.685 9.97398 14.5683 9.04649 14.01Z" fill="white"/>
<path id="Vector_4" opacity="0.4" d="M22.1286 11.8808V17.8405C22.1178 17.8275 22.107 17.8016 22.0962 17.7886C22.0962 17.7756 22.0855 17.7626 22.0747 17.7496C22.0315 17.6717 21.9776 17.5938 21.9237 17.5289C21.9129 17.5159 21.9021 17.4901 21.8913 17.4771C21.0178 16.3085 19.7344 15.5813 18.3216 15.5813C16.9627 15.5813 15.7224 16.2564 14.8381 17.3471C13.9861 18.3989 13.4684 19.8401 13.4684 21.4242C13.4684 22.5149 13.7272 23.5536 14.1694 24.4366C14.3527 24.8131 14.5792 25.1507 14.8273 25.4623L14.3204 25.774C14.1047 25.9038 13.8674 25.9687 13.6302 25.9687C13.3498 25.9687 13.0694 25.878 12.8105 25.6832C12.3576 25.3456 12.0771 24.7482 12.0771 24.099V16.9316C12.0771 15.6851 12.6487 14.5685 13.5762 14.0102L19.8853 10.2188C20.3707 9.92012 20.9315 9.94608 21.3952 10.2967C21.8482 10.6342 22.1286 11.2316 22.1286 11.8808Z" fill="white"/>
</g>
</g>
</svg>
