<svg width="17" height="18" viewBox="0 0 17 18" fill="none" xmlns="http://www.w3.org/2000/svg">
<path id="Vector" d="M1.17163 4V3C1.17163 2.46957 1.3654 1.96086 1.7103 1.58579C2.05521 1.21071 2.523 1 3.01077 1H4.84992M1.17163 14V15C1.17163 15.5304 1.3654 16.0391 1.7103 16.4142C2.05521 16.7893 2.523 17 3.01077 17H4.84992M12.2065 1H14.0456C14.5334 1 15.0012 1.21071 15.3461 1.58579C15.691 1.96086 15.8848 2.46957 15.8848 3V4M12.2065 17H14.0456C14.5334 17 15.0012 16.7893 15.3461 16.4142C15.691 16.0391 15.8848 15.5304 15.8848 15V14M6.68906 8V10M14.9652 8V10M2.0912 8H3.01077V10H2.0912V8ZM10.3673 8H11.2869V10H10.3673V8Z" stroke="black" stroke-width="2" stroke-linecap="round" stroke-linejoin="round"/>
</svg>
