<svg xmlns="http://www.w3.org/2000/svg" width="21" height="21" viewBox="0 0 21 21" fill="none">
<path fill-rule="evenodd" clip-rule="evenodd" d="M0.875 10.4998C0.875 15.8156 5.18426 20.1248 10.5 20.1248C15.8157 20.1248 20.125 15.8156 20.125 10.4998C20.125 5.18408 15.8157 0.87482 10.5 0.87482C5.18426 0.87482 0.875 5.18408 0.875 10.4998ZM0 10.5C0 4.70101 4.70101 0 10.5 0C16.299 0 21 4.70101 21 10.5C21 16.299 16.299 21 10.5 21C4.70101 21 0 16.299 0 10.5Z" fill="#979797"/>
<path fill-rule="evenodd" clip-rule="evenodd" d="M10.5 16.6252C7.11726 16.6252 4.375 13.883 4.375 10.5002C4.375 7.1175 7.11726 4.37524 10.5 4.37524C13.8827 4.37524 16.625 7.1175 16.625 10.5002C16.625 13.883 13.8827 16.6252 10.5 16.6252Z" fill="#979797"/>
</svg>