<svg width="33" height="28" viewBox="0 0 33 28" fill="none" xmlns="http://www.w3.org/2000/svg">
<g id="Scan_alt_2">
<path id="Rectangle 14" d="M28.875 11.6663L28.875 10.4997C28.875 9.41471 28.875 8.87222 28.7344 8.42714C28.353 7.21932 27.2411 6.2759 25.8176 5.95227C25.2931 5.83301 24.6537 5.83301 23.375 5.83301" stroke="#F6F7FC" stroke-width="2" stroke-linejoin="round"/>
<path id="Rectangle 16" d="M4.125 11.6663L4.125 10.4997C4.125 9.41471 4.125 8.87222 4.26556 8.42714C4.64698 7.21932 5.75887 6.2759 7.18237 5.95227C7.70693 5.83301 8.34629 5.83301 9.625 5.83301" stroke="#F8F9FD" stroke-width="2" stroke-linejoin="round"/>
<path id="Rectangle 15" d="M28.875 16.333L28.875 17.4997C28.875 18.5846 28.875 19.1271 28.7344 19.5722C28.353 20.78 27.2411 21.7234 25.8176 22.0471C25.2931 22.1663 24.6537 22.1663 23.375 22.1663" stroke="#EEF0F7" stroke-width="2" stroke-linejoin="round"/>
<path id="Rectangle 17" d="M4.125 16.333L4.125 17.4997C4.125 18.5846 4.125 19.1271 4.26556 19.5722C4.64698 20.78 5.75887 21.7234 7.18237 22.0471C7.70693 22.1663 8.34629 22.1663 9.625 22.1663" stroke="#F4F7FD" stroke-width="2" stroke-linejoin="round"/>
<path id="Vector 35" d="M16.5 17.5L16.5 10.5" stroke="#F4F7FF" stroke-width="2" stroke-linecap="round" stroke-linejoin="round"/>
<path id="Vector 36" d="M11 16.3337L11 11.667" stroke="#F1F3F9" stroke-width="2" stroke-linecap="round" stroke-linejoin="round"/>
<path id="Vector 37" d="M22 16.3337L22 11.667" stroke="white" stroke-width="2" stroke-linecap="round" stroke-linejoin="round"/>
</g>
</svg>
