<svg width="28" height="27" viewBox="0 0 28 27" fill="none" xmlns="http://www.w3.org/2000/svg">
<g id="settings">
<g id="Vector">
<path d="M12.0458 4.85663C12.5428 2.88112 15.4572 2.88112 15.9542 4.85663C16.0287 5.1534 16.1749 5.429 16.3808 5.661C16.5867 5.893 16.8465 6.07484 17.1391 6.19171C17.4317 6.30859 17.7487 6.35721 18.0644 6.3336C18.3801 6.31 18.6856 6.21484 18.956 6.05587C20.7562 4.99837 22.8177 6.98512 21.721 8.72212C21.5564 8.98274 21.4579 9.27713 21.4334 9.58137C21.409 9.88561 21.4594 10.1911 21.5804 10.4731C21.7015 10.755 21.8899 11.0054 22.1302 11.2039C22.3705 11.4025 22.656 11.5435 22.9635 11.6156C25.0122 12.0949 25.0122 14.9051 22.9635 15.3844C22.6557 15.4563 22.3699 15.5972 22.1293 15.7958C21.8887 15.9944 21.7002 16.2449 21.579 16.527C21.4578 16.8091 21.4073 17.1148 21.4318 17.4193C21.4563 17.7237 21.555 18.0183 21.7198 18.279C22.8165 20.0149 20.7562 22.0028 18.9548 20.9453C18.6846 20.7865 18.3793 20.6915 18.0638 20.668C17.7483 20.6444 17.4314 20.693 17.1391 20.8097C16.8467 20.9265 16.587 21.1081 16.3811 21.3398C16.1752 21.5716 16.0289 21.8469 15.9542 22.1434C15.4572 24.1189 12.5428 24.1189 12.0458 22.1434C11.9713 21.8466 11.8251 21.571 11.6192 21.339C11.4133 21.107 11.1535 20.9252 10.8609 20.8083C10.5683 20.6914 10.2513 20.6428 9.93558 20.6664C9.61986 20.69 9.31438 20.7852 9.044 20.9441C7.24383 22.0016 5.18233 20.0149 6.279 18.2779C6.44362 18.0173 6.54214 17.7229 6.56656 17.4186C6.59099 17.1144 6.54062 16.8089 6.41955 16.5269C6.29848 16.245 6.11014 15.9946 5.86982 15.7961C5.6295 15.5975 5.34399 15.4565 5.0365 15.3844C2.98783 14.9051 2.98783 12.0949 5.0365 11.6156C5.34427 11.5437 5.63008 11.4028 5.87067 11.2042C6.11126 11.0056 6.29983 10.7551 6.42104 10.473C6.54224 10.1909 6.59266 9.88519 6.56818 9.58074C6.5437 9.27629 6.44502 8.98172 6.28017 8.721C5.1835 6.98512 7.24383 4.99725 9.04517 6.05475C10.2118 6.73875 11.7238 6.1335 12.0458 4.85663Z" stroke="white" stroke-width="2" stroke-linecap="round" stroke-linejoin="round"/>
<path d="M10.5 13.5C10.5 14.3951 10.8687 15.2536 11.5251 15.8865C12.1815 16.5194 13.0717 16.875 14 16.875C14.9283 16.875 15.8185 16.5194 16.4749 15.8865C17.1313 15.2536 17.5 14.3951 17.5 13.5C17.5 12.6049 17.1313 11.7464 16.4749 11.1135C15.8185 10.4806 14.9283 10.125 14 10.125C13.0717 10.125 12.1815 10.4806 11.5251 11.1135C10.8687 11.7464 10.5 12.6049 10.5 13.5Z" stroke="white" stroke-width="2" stroke-linecap="round" stroke-linejoin="round"/>
</g>
</g>
</svg>
